<?xml version="1.0" encoding="UTF-8"?>
<svg width="24px" height="24px" viewBox="0 0 24 24" version="1.1" xmlns="http://www.w3.org/2000/svg">
    <g stroke="none" stroke-width="1" fill="none" fill-rule="evenodd">
        <path d="M12,7 C14.76,7 17,9.24 17,12 C17,12.65 16.87,13.26 16.64,13.83 L19.56,16.75 C21.07,15.49 22.26,13.86 23,12 C21.27,7.61 17,4.5 12,4.5 C10.6,4.5 9.26,4.75 8,5.2 L10.17,7.37 C10.74,7.14 11.35,7 12,7 Z M2,3.27 L4.28,5.55 L4.74,6.01 C3.08,7.3 1.78,9.02 1,12 C2.73,16.39 7,19.5 12,19.5 C13.55,19.5 15.03,19.2 16.38,18.66 L16.8,19.08 L19.73,22 L21,20.73 L3.27,3 L2,4.27 Z M7.53,8.8 L9.08,10.35 C9.03,10.56 9,10.78 9,11 C9,12.66 10.34,14 12,14 C12.22,14 12.44,13.97 12.65,13.92 L14.2,15.47 C13.53,15.8 12.79,16 12,16 C9.24,16 7,13.76 7,11 C7,10.21 7.2,9.47 7.53,8.8 Z M11.84,9.02 L14.99,12.17 L15.01,12.01 C15.01,10.35 13.67,9.01 12.01,9.01 L11.84,9.02 Z" fill="#555555"></path>
    </g>
</svg>
